PathFileType	4	(X/Y/Z)	D:\TRACE\spotREDO_2-26-24\spot_Both_Motion_3_10-platform.trc
DataRate	CameraRate	NumFrames	NumMarkers	Units	OrigDataRate	OrigDataStartFrame	OrigNumFrames
100.00	100.00	      60	5	mm	100.00	4376	      7000
Frame#	Time	Left_Front			Right_Front			Left_Aft			Right_Aft			Post			
		X1	Y1	Z1	X2	Y2	Z2	X3	Y3	Z3	X4	Y4	Z4	X5	Y5	Z5	

4376	43.750	-692.66577	-76.31602	-589.72913	722.14172	-57.84694	-505.65863	-764.96143	76.51794	619.08051	804.56274	84.37763	624.71265	1.62312	497.12616	-1068.21045	
4377	43.760	-692.62347	-75.97559	-589.66107	722.09662	-57.56774	-505.79022	-764.98041	76.19151	619.16547	804.65753	83.91317	624.65790	1.83643	497.61948	-1067.93811	
4378	43.770	-692.50653	-75.65254	-589.65283	722.39673	-57.20591	-505.54385	-764.91974	76.02014	619.20691	804.69617	83.62672	624.76276	1.80776	498.20932	-1067.58350	
4379	43.780	-692.52576	-75.18584	-589.61115	722.35522	-56.83771	-505.60687	-764.74286	75.73997	619.37964	804.77380	83.35951	624.87476	1.85918	498.89612	-1067.20203	
4380	43.790	-692.43866	-74.71483	-589.51843	722.42279	-56.66018	-505.44778	-764.58252	75.34171	619.55341	804.81274	83.09637	625.02783	2.17046	499.65451	-1066.44324	
4381	43.800	-692.33447	-74.33788	-589.37445	722.62897	-56.25193	-505.40253	-764.56610	74.93616	619.74884	804.76471	82.56290	625.22736	2.34793	500.33685	-1065.86279	
4382	43.810	-692.25128	-74.14787	-589.29932	722.61823	-56.05831	-505.37204	-764.58893	74.46483	619.88623	804.81732	82.25242	625.23328	2.68338	500.56714	-1065.97180	
4383	43.820	-692.16968	-73.90869	-589.33148	722.68335	-55.75652	-505.39523	-764.45825	74.14289	620.05798	804.89392	81.92133	625.37500	2.77505	501.44730	-1064.92139	
4384	43.830	-692.13147	-73.46526	-589.34796	722.84924	-55.43572	-505.26239	-764.33411	73.90643	620.16461	805.01666	81.63299	625.64771	2.44167	502.28400	-1064.78418	
4385	43.840	-692.02893	-73.04012	-589.27710	722.70331	-54.82371	-505.28586	-764.33765	73.55108	620.31763	805.19043	81.25249	625.82910	2.17185	503.34976	-1064.42236	
4386	43.850	-691.92737	-72.59449	-589.21155	722.79517	-54.38919	-505.06485	-764.48865	73.55980	620.36328	805.34235	80.96135	626.01038	2.47073	504.05121	-1063.83105	
4387	43.860	-691.78705	-72.26038	-589.17609	722.80731	-54.13199	-504.93369	-764.14734	72.98987	620.55145	805.28503	80.58614	626.09277	2.48131	504.68475	-1063.54700	
4388	43.870	-691.77667	-71.91415	-589.07587	722.86945	-53.84634	-504.96689	-764.09033	72.11969	620.71851	805.16028	79.82672	626.00562	2.47424	505.33124	-1063.18115	
4389	43.880	-691.51862	-71.44303	-589.07007	723.09869	-53.70593	-504.88916	-763.99567	71.69622	620.84283	805.37286	79.34357	626.19568	2.84360	505.85733	-1063.26611	
4390	43.890	-691.70538	-70.76406	-588.92761	723.17700	-53.33730	-504.89328	-763.99982	71.37955	621.02997	805.41797	79.05800	626.41211	2.92406	506.75092	-1062.90698	
4391	43.900	-691.63342	-70.42840	-588.87946	723.15839	-52.73468	-504.71866	-763.94312	71.18032	621.17181	805.63141	78.64024	626.70581	2.89015	507.46841	-1061.99231	
4392	43.910	-691.55859	-70.08013	-588.76233	723.35535	-52.37210	-504.56357	-763.85516	70.89101	621.32898	805.67523	78.52434	626.85718	3.32139	508.11536	-1061.34778	
4393	43.920	-691.60999	-69.82729	-588.81628	723.37787	-52.05951	-504.59280	-763.70172	70.32545	621.54688	805.75360	78.06948	626.87762	3.05209	508.81339	-1060.70117	
4394	43.930	-691.57507	-69.37529	-588.80609	723.52264	-51.87486	-504.54868	-763.52264	69.74808	621.75024	805.81085	77.65636	627.14600	3.46982	509.43121	-1060.02820	
4395	43.940	-691.31720	-69.03436	-588.70294	723.72845	-51.65202	-504.35654	-763.46527	69.44162	621.83356	805.91937	77.26351	627.38403	3.08673	510.18195	-1059.76611	
4396	43.950	-691.10657	-68.63801	-588.65918	723.62128	-51.21617	-504.29077	-763.46759	69.26865	621.94391	806.04382	76.96564	627.59692	3.11194	510.81613	-1059.43567	
4397	43.960	-690.90497	-68.26950	-588.61768	723.58557	-50.83360	-504.39590	-763.40338	68.94408	622.06873	806.08923	76.76111	627.71967	3.41325	511.48483	-1059.37109	
4398	43.970	-690.88531	-67.89864	-588.61237	723.76843	-50.38916	-504.30820	-763.40198	68.39471	622.28546	806.17761	76.40131	627.80579	3.38555	512.36749	-1058.64600	
4399	43.980	-691.00574	-67.50325	-588.62939	723.89166	-49.94631	-504.33325	-763.26587	68.01843	622.40155	806.15704	75.87415	627.91681	3.22406	513.06818	-1058.29053	
4400	43.990	-691.06042	-67.10590	-588.55042	724.30621	-49.86270	-504.23895	-763.21442	67.59532	622.58521	806.45813	75.33756	628.11017	3.59911	513.80511	-1057.78223	
4401	44.000	-690.96185	-66.65550	-588.36255	724.23584	-49.51752	-504.37393	-763.10889	67.28115	622.79248	806.48505	75.03720	628.17749	3.36481	514.29858	-1057.57581	
4402	44.010	-690.70038	-66.19205	-588.24438	724.04657	-48.91255	-504.24796	-762.99066	66.93248	622.98651	806.48157	74.69060	628.38129	3.73907	515.18774	-1057.13538	
4403	44.020	-690.61224	-65.68465	-588.28235	724.06512	-48.68814	-504.18192	-763.00397	66.78335	623.12769	806.49963	74.31983	628.45422	3.80048	515.95294	-1056.80688	
4404	44.030	-690.61469	-65.29993	-588.37079	724.23315	-48.39303	-504.05362	-763.03314	66.40164	623.13782	806.72681	73.91633	628.56757	3.97081	516.48163	-1056.21375	
4405	44.040	-690.66650	-65.04462	-588.29120	724.33411	-48.18173	-503.96600	-762.98804	66.21738	623.32648	806.91254	73.68887	628.87958	4.63295	517.00531	-1056.21960	
4406	44.050	-690.57312	-64.92600	-588.29730	724.49524	-47.90842	-503.84930	-762.61292	65.27291	623.31958	806.96002	73.16473	628.99298	4.51853	517.77393	-1055.05432	
4407	44.060	-690.29773	-64.58209	-588.13562	724.69165	-47.66833	-503.69360	-762.48926	64.98548	623.48346	806.99762	72.76957	629.03497	4.05868	518.25287	-1054.94983	
4408	44.070	-690.00317	-64.12882	-588.03217	724.77240	-47.30975	-503.56604	-762.44495	64.73904	623.62927	807.04559	72.46878	629.14368	4.31999	518.98352	-1054.38013	
4409	44.080	-689.73822	-63.76779	-587.96533	724.81580	-46.79002	-503.53049	-762.33472	64.49571	623.74091	807.22101	72.03622	629.46002	4.37304	519.58557	-1053.80786	
4410	44.090	-689.68774	-63.53745	-588.01019	724.82843	-46.53096	-503.56268	-762.23383	64.14841	623.79175	807.39880	71.80840	629.52930	4.60328	520.08435	-1053.52808	
4411	44.100	-689.74530	-63.29213	-587.95111	724.82513	-46.26365	-503.61484	-762.16589	63.82644	623.93939	807.60345	71.48447	629.51117	4.81539	520.55530	-1053.22473	
4412	44.110	-689.85504	-62.96367	-587.94427	724.95502	-46.15394	-503.57846	-761.99030	63.48218	624.03943	807.71106	71.39259	629.58160	5.05940	520.94647	-1053.03992	
4413	44.120	-689.80865	-62.52709	-587.78918	725.12909	-45.87455	-503.45258	-761.76624	63.18711	624.19269	807.78461	71.21885	629.73303	5.52902	521.48602	-1052.74377	
4414	44.130	-689.53412	-61.99031	-587.57520	725.39398	-45.65681	-503.43143	-761.55322	62.98483	624.29712	807.93079	70.83364	629.81531	5.87883	521.89685	-1052.54358	
4415	44.140	-689.45947	-61.62600	-587.51550	725.46191	-45.49392	-503.35962	-761.46277	62.65265	624.32861	808.04987	70.32018	629.84692	5.20610	522.68079	-1052.41833	
4416	44.150	-689.43237	-61.39318	-587.52325	725.53979	-44.99846	-503.34482	-761.61346	62.22757	624.38098	807.94995	69.86475	629.92926	5.42430	523.11310	-1052.12769	
4417	44.160	-689.34094	-61.10482	-587.54913	725.78870	-44.65703	-503.31314	-761.49500	62.01089	624.41296	807.96759	69.62446	630.09644	5.33752	523.71539	-1051.71887	
4418	44.170	-689.35657	-60.86611	-587.52643	725.83130	-44.34021	-503.26950	-761.20203	61.64379	624.71954	808.04279	69.48665	630.19922	5.88409	524.13501	-1051.04028	
4419	44.180	-689.14264	-60.60274	-587.53198	726.13226	-44.21988	-503.14807	-760.86615	61.41238	624.85522	808.25995	69.35068	630.23682	6.09503	524.54785	-1050.55981	
4420	44.190	-688.71088	-60.37332	-587.40326	726.20380	-43.89983	-503.12549	-760.71021	61.09951	624.88977	808.66357	68.98275	630.32129	5.63869	525.14771	-1050.63892	
4421	44.200	-688.47949	-60.09345	-587.27570	726.34851	-43.75041	-503.06970	-760.43079	61.02041	624.94080	808.91547	68.65958	630.43689	6.04876	525.64404	-1050.00305	
4422	44.210	-688.23492	-59.89645	-587.27319	726.65051	-43.75420	-503.01947	-760.29584	60.74957	624.92090	809.04388	68.31087	630.51587	6.13659	526.05035	-1049.70093	
4423	44.220	-688.06763	-59.66671	-587.27740	726.86346	-43.54496	-502.80685	-760.11017	60.53535	625.01624	809.44385	68.09483	630.59552	6.28093	526.55011	-1049.30640	
4424	44.230	-687.99146	-59.59851	-587.36005	727.07819	-43.34546	-502.72290	-759.92773	60.32495	625.16351	809.62201	67.93030	630.66101	6.58770	527.00372	-1049.08289	
4425	44.240	-687.75177	-59.33904	-587.25134	727.34875	-43.11761	-502.59802	-759.72760	60.10184	625.35431	809.79144	67.78781	630.72369	7.27770	527.21985	-1048.71826	
4426	44.250	-687.50745	-59.09233	-587.10474	727.50024	-42.90604	-502.60333	-759.51587	59.73497	625.46753	810.07562	67.58539	630.78619	7.17530	527.61328	-1048.91064	
4427	44.260	-687.28723	-58.92242	-587.08820	727.48633	-42.56689	-502.63144	-759.27496	59.49225	625.48883	810.39880	67.23090	630.85986	7.29129	527.98822	-1048.74524	
4428	44.270	-686.96863	-58.61641	-587.09998	727.75903	-42.34910	-502.78375	-759.31744	59.64862	625.44147	810.58038	67.06796	630.95154	7.26075	528.27124	-1048.67896	
4429	44.280	-686.79071	-58.33107	-587.10321	727.92609	-42.15979	-502.89551	-759.22174	59.53976	625.54865	810.69360	66.94707	630.98767	7.71439	528.53333	-1048.30896	
4430	44.290	-686.64380	-58.16022	-587.06958	728.03833	-42.03783	-502.74899	-758.77405	59.09889	625.66992	810.82111	66.82077	631.01422	7.90911	528.87946	-1048.31714	
4431	44.300	-686.47375	-58.00570	-587.07623	728.24921	-41.82954	-502.54742	-758.59149	59.02860	625.73694	810.98450	66.67472	631.05920	8.35730	529.18500	-1047.98279	
4432	44.310	-686.37250	-57.90822	-586.94244	728.40466	-41.66407	-502.56058	-758.40729	58.79935	625.72681	811.15192	66.69049	631.09387	7.97299	529.54828	-1048.15369	
4433	44.320	-686.12982	-57.67254	-586.82062	728.70380	-41.63108	-502.70364	-758.22040	58.65047	625.75043	811.36023	66.58760	631.18079	8.30762	529.85510	-1047.82068	
4434	44.330	-685.88184	-57.49115	-586.79309	728.85199	-41.80784	-502.89658	-757.80719	58.55208	625.81604	811.77582	66.08923	631.28790	8.47292	530.38391	-1047.33643	
4435	44.340	-685.54987	-57.56806	-586.67999	729.30225	-41.56955	-502.66144	-757.56458	58.17100	625.86523	811.91742	65.93420	631.36041	8.83056	530.66132	-1046.87231	
